<svg width="24" height="24" viewBox="0 0 24 24" fill="none" xmlns="http://www.w3.org/2000/svg">
<path fill-rule="evenodd" clip-rule="evenodd" d="M10.835 12.0067L10.8366 12.3608C10.8487 13.7652 10.9334 15.0183 11.0794 15.8124C11.0794 15.8268 11.2387 16.6143 11.3401 16.8765C11.4994 17.2554 11.7874 17.5771 12.1485 17.7809C12.4376 17.9263 12.7408 18.0001 13.0583 18.0001C13.3078 17.9885 13.7194 17.8629 14.0131 17.7576L14.2572 17.6641C15.8739 17.0219 18.9644 14.9235 20.148 13.6402L20.2353 13.5505L20.6247 13.1302C20.8702 12.8086 21 12.4153 21 11.9924C21 11.6134 20.8844 11.2345 20.6531 10.9283C20.5839 10.8291 20.4723 10.7018 20.3731 10.5942L19.994 10.1974C18.6895 8.87578 15.8652 7.02189 14.4012 6.40763C14.4012 6.39441 13.4914 6.01438 13.0583 6.00006H13.0005C12.3361 6.00006 11.7154 6.37899 11.3979 6.99143C11.3112 7.15886 11.228 7.48684 11.1648 7.77489L11.051 8.31877C10.9212 9.19338 10.835 10.535 10.835 12.0067ZM4.50325 10.4817C3.67308 10.4817 3 11.1614 3 11.9996C3 12.8379 3.67308 13.5175 4.50325 13.5175L8.20248 13.1904C8.85375 13.1904 9.38174 12.6583 9.38174 11.9996C9.38174 11.342 8.85375 10.8089 8.20248 10.8089L4.50325 10.4817Z" fill="white"/>
</svg>
