<svg width="24" height="24" viewBox="0 0 24 24" fill="none" xmlns="http://www.w3.org/2000/svg">
<rect width="24" height="24" rx="7" fill="#FFE4F2"/>
<path d="M17.3025 9.07167C16.8066 8.52333 15.9783 8.24917 14.7766 8.24917H14.6366V8.22583C14.6366 7.24583 14.6366 6.0325 12.4433 6.0325H11.5566C9.36331 6.0325 9.36331 7.25167 9.36331 8.22583V8.255H9.22331C8.01581 8.255 7.19331 8.52917 6.69748 9.0775C6.11998 9.71917 6.13748 10.5825 6.19581 11.1717L6.20165 11.2125L6.23744 11.5883C6.2517 11.7381 6.33245 11.8736 6.45872 11.9554C6.59632 12.0445 6.77476 12.1577 6.88998 12.2217C6.97165 12.2742 7.05915 12.3208 7.14665 12.3675C8.14415 12.9158 9.24081 13.2833 10.355 13.4642C10.4075 14.0125 10.6466 14.6542 11.9241 14.6542C13.2016 14.6542 13.4525 14.0183 13.4933 13.4525C14.6833 13.26 15.8325 12.8458 16.8708 12.2392C16.9058 12.2217 16.9291 12.2042 16.9583 12.1867C17.1659 12.0693 17.3806 11.9275 17.5805 11.7856C17.6904 11.7076 17.7601 11.5855 17.775 11.4517L17.8041 11.1775C17.81 11.1425 17.81 11.1133 17.8158 11.0725C17.8625 10.4833 17.8508 9.67833 17.3025 9.07167ZM12.6358 13.0675C12.6358 13.6858 12.6358 13.7792 11.9183 13.7792C11.2008 13.7792 11.2008 13.6683 11.2008 13.0733V12.3383H12.6358V13.0675ZM10.1975 8.24917V8.22583C10.1975 7.23417 10.1975 6.86667 11.5566 6.86667H12.4433C13.8025 6.86667 13.8025 7.24 13.8025 8.22583V8.255H10.1975V8.24917Z" fill="#F478B8"/>
<path d="M16.838 13.1706C17.1932 13.0057 17.601 13.2866 17.5656 13.6766L17.39 15.6108C17.2675 16.7775 16.7892 17.9675 14.2225 17.9675H9.77749C7.21082 17.9675 6.73249 16.7775 6.60999 15.6167L6.44428 13.7938C6.40924 13.4084 6.80749 13.1278 7.16155 13.2842C7.81221 13.5715 8.72607 13.9543 9.36843 14.138C9.53174 14.1847 9.66361 14.3035 9.74436 14.4529C10.1182 15.1447 10.8659 15.5117 11.9242 15.5117C12.9721 15.5117 13.7282 15.1304 14.1038 14.4356C14.1846 14.2861 14.3167 14.1674 14.4801 14.1202C15.1665 13.922 16.1498 13.4901 16.838 13.1706Z" fill="#F478B8"/>
</svg>
