<svg width="24" height="24" viewBox="0 0 24 24" fill="none" xmlns="http://www.w3.org/2000/svg">
<path d="M14.236 5.29199C14.236 4.77199 14.236 4.51199 14.179 4.29899C14.1025 4.01473 13.9527 3.75554 13.7446 3.54739C13.5364 3.33925 13.2773 3.18944 12.993 3.11299C12.431 2.96299 11.569 2.96299 11.007 3.11299C10.7225 3.18929 10.4632 3.33903 10.2548 3.54718C10.0465 3.75534 9.89654 4.01461 9.82 4.29899C9.763 4.51199 9.763 4.77199 9.763 5.29199C9.763 6.34599 9.763 9.10899 9.435 9.43599C9.108 9.76399 6.345 9.76399 5.291 9.76399C4.771 9.76399 4.511 9.76399 4.298 9.82099C4.01373 9.89744 3.75455 10.0472 3.5464 10.2554C3.33825 10.4635 3.18845 10.7227 3.112 11.007C2.962 11.569 2.962 12.432 3.112 12.993C3.267 13.572 3.719 14.023 4.298 14.179C4.511 14.236 4.771 14.236 5.291 14.236C6.345 14.236 9.108 14.236 9.435 14.563C9.763 14.891 9.763 15.418 9.763 16.473C9.763 16.992 9.763 19.488 9.82 19.701C9.89645 19.9853 10.0463 20.2444 10.2544 20.4526C10.4625 20.6607 10.7217 20.8105 11.006 20.887C11.568 21.037 12.431 21.037 12.992 20.887C13.2763 20.8105 13.5354 20.6607 13.7436 20.4526C13.9517 20.2444 14.1015 19.9853 14.178 19.701C14.235 19.488 14.235 16.992 14.235 16.472C14.235 15.418 14.235 14.891 14.562 14.563C14.89 14.236 17.653 14.236 18.707 14.236C19.227 14.236 19.487 14.236 19.7 14.179C19.9843 14.1025 20.2434 13.9527 20.4516 13.7446C20.6597 13.5364 20.8095 13.2773 20.886 12.993C21.036 12.431 21.036 11.569 20.886 11.007C20.8095 10.7227 20.6597 10.4635 20.4516 10.2554C20.2434 10.0472 19.9843 9.89744 19.7 9.82099C19.487 9.76399 19.227 9.76399 18.707 9.76399C17.653 9.76399 14.89 9.76399 14.563 9.43599C14.235 9.10899 14.235 6.34599 14.235 5.29199" stroke="white" stroke-width="1.5" stroke-linecap="round" stroke-linejoin="round"/>
</svg>
