<svg width="13" height="13" viewBox="0 0 13 13" fill="none" xmlns="http://www.w3.org/2000/svg">
<path d="M11.9738 0.251862C11.7447 0.124247 11.4927 0.0431153 11.2322 0.0130994C10.9717 -0.0169166 10.7079 0.00477163 10.4558 0.0769255C10.2037 0.149079 9.96822 0.270285 9.76288 0.43362C9.55753 0.596955 9.38631 0.79922 9.259 1.02886L5.55304 7.71086L3.43206 5.58586C3.24792 5.39484 3.02765 5.24248 2.7841 5.13766C2.54056 5.03284 2.27861 4.97767 2.01356 4.97536C1.7485 4.97305 1.48564 5.02366 1.24031 5.12422C0.994987 5.22478 0.772106 5.37329 0.584677 5.56107C0.397247 5.74886 0.249022 5.97216 0.148651 6.21795C0.0482797 6.46375 -0.00222789 6.72711 7.53704e-05 6.99266C0.00237863 7.25822 0.0574467 7.52066 0.162066 7.76467C0.266686 8.00868 0.418761 8.22937 0.60942 8.41386L4.60184 12.4139C4.97913 12.7929 5.48816 13.0009 6.01316 13.0009L6.28964 12.9809C6.59561 12.938 6.88747 12.8245 7.14224 12.6494C7.39701 12.4744 7.60775 12.2424 7.75785 11.9719L12.7484 2.97186C12.8758 2.74231 12.9568 2.48987 12.9869 2.22894C13.0169 1.96801 12.9953 1.70372 12.9234 1.45114C12.8515 1.19856 12.7306 0.96265 12.5677 0.756877C12.4048 0.551104 12.203 0.3795 11.9738 0.251862Z" fill="green"/>
</svg>
